<svg xmlns="http://www.w3.org/2000/svg" width="540" height="162" viewBox="0 0 540 162"><defs><style>.a,.d{fill:#f8f9fa;}.b{fill:#212529;}.c{fill:#1a1a1a;}.d{stroke:rgba(0,0,0,0);stroke-miterlimit:10;}.e{fill:#dc3545;}</style></defs><g transform="translate(-355 -190)"><g transform="translate(355 190)"><g transform="translate(0 0.951)"><path class="a" d="M374.7,193.262v29.511h5.108v2.091H374.7v29.51h5.108v2.092H374.7v29.509h5.108v2.091H374.7v29.509h5.108v2.091H374.7v29.512h5.109v4.183h89.634v-4.183h5.11V319.666h-5.11v-2.091h5.11V288.066h-5.11v-2.091h5.11V256.465h-5.11v-2.092h5.11v-29.51h-5.11v-2.091h5.11V193.262Z" transform="translate(-374.696 -193.262)"/><g transform="translate(0.097 0.095)"><g transform="translate(0 31.606)"><g transform="translate(5.108 28.351)"><rect class="b" width="1.901" height="4.18"/><rect class="b" width="1.901" height="4.18" transform="translate(87.544)"/></g><path class="b" d="M474.511,272.554H374.849v-29.3h99.662Zm-97.761-1.9H472.61v-25.5H376.75Z" transform="translate(-374.849 -243.253)"/><g transform="translate(4.974 4.412)"><g transform="translate(46.519 0)"><rect class="b" width="2.09" height="1.901"/><rect class="b" width="2.09" height="1.901" transform="translate(4.567)"/><rect class="b" width="2.09" height="1.901" transform="translate(9.134)"/><rect class="b" width="2.09" height="1.901" transform="translate(13.701)"/><rect class="b" width="2.09" height="1.901" transform="translate(18.268)"/><rect class="b" width="2.09" height="1.901" transform="translate(22.835)"/><rect class="b" width="2.09" height="1.901" transform="translate(27.401)"/><rect class="b" width="2.09" height="1.901" transform="translate(31.969)"/><rect class="b" width="2.09" height="1.901" transform="translate(36.536)"/><rect class="b" width="2.09" height="1.901" transform="translate(41.103)"/><g transform="translate(0 4.645)"><rect class="b" width="2.09" height="1.901"/><rect class="b" width="2.09" height="1.901" transform="translate(4.567)"/><rect class="b" width="2.09" height="1.901" transform="translate(9.134)"/><rect class="b" width="2.09" height="1.901" transform="translate(13.701)"/><rect class="b" width="2.09" height="1.901" transform="translate(18.268)"/><rect class="b" width="2.09" height="1.901" transform="translate(22.835)"/><rect class="b" width="2.09" height="1.901" transform="translate(27.401)"/><rect class="b" width="2.09" height="1.901" transform="translate(31.969)"/><rect class="b" width="2.09" height="1.901" transform="translate(36.536)"/><rect class="b" width="2.09" height="1.901" transform="translate(41.103)"/></g><g transform="translate(0 9.289)"><rect class="b" width="2.09" height="1.901"/><rect class="b" width="2.09" height="1.901" transform="translate(4.567)"/><rect class="b" width="2.09" height="1.901" transform="translate(9.134)"/><rect class="b" width="2.09" height="1.901" transform="translate(13.701)"/><rect class="b" width="2.09" height="1.901" transform="translate(18.268)"/><rect class="b" width="2.09" height="1.901" transform="translate(22.835)"/><rect class="b" width="2.09" height="1.901" transform="translate(27.401)"/><rect class="b" width="2.09" height="1.901" transform="translate(31.969)"/><rect class="b" width="2.09" height="1.901" transform="translate(36.536)"/><rect class="b" width="2.09" height="1.901" transform="translate(41.103)"/></g><g transform="translate(0 13.932)"><rect class="b" width="2.09" height="1.901"/><rect class="b" width="2.09" height="1.901" transform="translate(4.567)"/><rect class="b" width="2.09" height="1.901" transform="translate(9.134)"/><rect class="b" width="2.09" height="1.901" transform="translate(13.701)"/><rect class="b" width="2.09" height="1.901" transform="translate(18.268)"/><rect class="b" width="2.09" height="1.901" transform="translate(22.835)"/><rect class="b" width="2.09" height="1.901" transform="translate(27.401)"/><rect class="b" width="2.09" height="1.901" transform="translate(31.969)"/><rect class="b" width="2.09" height="1.901" transform="translate(36.536)"/><rect class="b" width="2.09" height="1.901" transform="translate(41.103)"/></g><g transform="translate(0 18.576)"><rect class="b" width="2.09" height="1.901"/><rect class="b" width="2.09" height="1.901" transform="translate(4.567)"/><rect class="b" width="2.09" height="1.901" transform="translate(9.134)"/><rect class="b" width="2.09" height="1.901" transform="translate(13.701)"/><rect class="b" width="2.09" height="1.901" transform="translate(18.268)"/><rect class="b" width="2.09" height="1.901" transform="translate(22.835)"/><rect class="b" width="2.09" height="1.901" transform="translate(27.401)"/><rect class="b" width="2.09" height="1.901" transform="translate(31.969)"/><rect class="b" width="2.09" height="1.901" transform="translate(36.536)"/><rect class="b" width="2.09" height="1.901" transform="translate(41.103)"/></g></g><g transform="translate(8.075)"><g transform="translate(0.95 18.251)"><rect class="b" width="2.09" height="1.901"/><rect class="b" width="2.089" height="1.901" transform="translate(4.297)"/><rect class="b" width="2.09" height="1.901" transform="translate(8.592)"/><g transform="translate(24.289 0.325)"><rect class="b" width="2.09" height="1.901"/><rect class="b" width="2.09" height="1.901" transform="translate(4.18)"/></g></g><path class="b" d="M427.9,256.994h-32.46v-6.777H427.9Zm-30.559-1.9H426v-2.975H397.345Z" transform="translate(-395.444 -250.217)"/><path class="b" d="M427.9,271.4h-32.46v-6.776H427.9Zm-30.559-1.9H426v-2.974H397.345Z" transform="translate(-395.444 -255.495)"/></g><g transform="translate(0 0.474)"><rect class="b" width="1.901" height="15.119" transform="translate(0.096 4.412)"/><rect class="b" width="2.09" height="1.901"/></g></g></g><g transform="translate(5.108 28.351)"><rect class="b" width="1.901" height="4.179"/><rect class="b" width="1.901" height="4.179" transform="translate(87.544)"/></g><path class="b" d="M474.511,222.713H374.849v-29.3h99.662Zm-97.761-1.9h95.86v-25.5H376.75Z" transform="translate(-374.849 -193.412)"/><g transform="translate(4.974 4.412)"><g transform="translate(46.519)"><rect class="b" width="2.09" height="1.901"/><rect class="b" width="2.09" height="1.901" transform="translate(4.567)"/><rect class="b" width="2.09" height="1.901" transform="translate(9.134)"/><rect class="b" width="2.09" height="1.901" transform="translate(13.701)"/><rect class="b" width="2.089" height="1.901" transform="translate(18.269)"/><rect class="b" width="2.09" height="1.901" transform="translate(22.835)"/><rect class="b" width="2.09" height="1.901" transform="translate(27.402)"/><rect class="b" width="2.09" height="1.901" transform="translate(31.968)"/><rect class="b" width="2.09" height="1.901" transform="translate(36.536)"/><rect class="b" width="2.09" height="1.901" transform="translate(41.102)"/><g transform="translate(0 4.644)"><rect class="b" width="2.09" height="1.901"/><rect class="b" width="2.09" height="1.901" transform="translate(4.567)"/><rect class="b" width="2.09" height="1.901" transform="translate(9.134)"/><rect class="b" width="2.09" height="1.901" transform="translate(13.701)"/><rect class="b" width="2.089" height="1.901" transform="translate(18.269)"/><rect class="b" width="2.09" height="1.901" transform="translate(22.835)"/><rect class="b" width="2.09" height="1.901" transform="translate(27.402)"/><rect class="b" width="2.09" height="1.901" transform="translate(31.968)"/><rect class="b" width="2.09" height="1.901" transform="translate(36.536)"/><rect class="b" width="2.09" height="1.901" transform="translate(41.102)"/></g><g transform="translate(0 9.288)"><rect class="b" width="2.09" height="1.901"/><rect class="b" width="2.09" height="1.901" transform="translate(4.567)"/><rect class="b" width="2.09" height="1.901" transform="translate(9.134)"/><rect class="b" width="2.09" height="1.901" transform="translate(13.701)"/><rect class="b" width="2.089" height="1.901" transform="translate(18.269)"/><rect class="b" width="2.09" height="1.901" transform="translate(22.835)"/><rect class="b" width="2.09" height="1.901" transform="translate(27.402)"/><rect class="b" width="2.09" height="1.901" transform="translate(31.968)"/><rect class="b" width="2.09" height="1.901" transform="translate(36.536)"/><rect class="b" width="2.09" height="1.901" transform="translate(41.102)"/></g><g transform="translate(0 13.932)"><rect class="b" width="2.09" height="1.901"/><rect class="b" width="2.09" height="1.901" transform="translate(4.567)"/><rect class="b" width="2.09" height="1.901" transform="translate(9.134)"/><rect class="b" width="2.09" height="1.901" transform="translate(13.701)"/><rect class="b" width="2.089" height="1.901" transform="translate(18.269)"/><rect class="b" width="2.09" height="1.901" transform="translate(22.835)"/><rect class="b" width="2.09" height="1.901" transform="translate(27.402)"/><rect class="b" width="2.09" height="1.901" transform="translate(31.968)"/><rect class="b" width="2.09" height="1.901" transform="translate(36.536)"/><rect class="b" width="2.09" height="1.901" transform="translate(41.102)"/></g><g transform="translate(0 18.576)"><rect class="b" width="2.09" height="1.901"/><rect class="b" width="2.09" height="1.901" transform="translate(4.567)"/><rect class="b" width="2.09" height="1.901" transform="translate(9.134)"/><rect class="b" width="2.09" height="1.901" transform="translate(13.701)"/><rect class="b" width="2.089" height="1.901" transform="translate(18.269)"/><rect class="b" width="2.09" height="1.901" transform="translate(22.835)"/><rect class="b" width="2.09" height="1.901" transform="translate(27.402)"/><rect class="b" width="2.09" height="1.901" transform="translate(31.968)"/><rect class="b" width="2.09" height="1.901" transform="translate(36.536)"/><rect class="b" width="2.09" height="1.901" transform="translate(41.102)"/></g></g><g transform="translate(8.075)"><g transform="translate(0.95 18.25)"><rect class="b" width="2.09" height="1.901"/><rect class="b" width="2.089" height="1.901" transform="translate(4.297)"/><rect class="b" width="2.09" height="1.901" transform="translate(8.592)"/><g transform="translate(24.289 0.325)"><rect class="b" width="2.09" height="1.901"/><rect class="b" width="2.09" height="1.901" transform="translate(4.18)"/></g></g><path class="b" d="M427.9,207.154h-32.46v-6.778H427.9Zm-30.559-1.9H426v-2.976H397.345Z" transform="translate(-395.444 -200.376)"/><path class="b" d="M427.9,221.555h-32.46v-6.777H427.9Zm-30.559-1.9H426V216.68H397.345Z" transform="translate(-395.444 -205.653)"/></g><g transform="translate(0 0.472)"><rect class="b" width="1.901" height="15.119" transform="translate(0.096 4.412)"/><rect class="b" width="2.09" height="1.901"/></g></g><g transform="translate(0 63.212)"><g transform="translate(5.108 28.352)"><rect class="b" width="1.901" height="4.179"/><rect class="b" width="1.901" height="4.179" transform="translate(87.544)"/></g><path class="b" d="M474.511,322.4H374.849V293.1h99.662Zm-97.761-1.9H472.61V295H376.75Z" transform="translate(-374.849 -293.095)"/><g transform="translate(4.974 4.412)"><g transform="translate(46.519 0)"><rect class="b" width="2.09" height="1.901"/><rect class="b" width="2.09" height="1.901" transform="translate(4.567)"/><rect class="b" width="2.09" height="1.901" transform="translate(9.134)"/><rect class="b" width="2.09" height="1.901" transform="translate(13.701)"/><rect class="b" width="2.09" height="1.901" transform="translate(18.268)"/><rect class="b" width="2.09" height="1.901" transform="translate(22.835)"/><rect class="b" width="2.09" height="1.901" transform="translate(27.401)"/><rect class="b" width="2.09" height="1.901" transform="translate(31.969)"/><rect class="b" width="2.09" height="1.901" transform="translate(36.536)"/><rect class="b" width="2.09" height="1.901" transform="translate(41.103)"/><g transform="translate(0 4.645)"><rect class="b" width="2.09" height="1.901"/><rect class="b" width="2.09" height="1.901" transform="translate(4.567)"/><rect class="b" width="2.09" height="1.901" transform="translate(9.134)"/><rect class="b" width="2.09" height="1.901" transform="translate(13.701)"/><rect class="b" width="2.09" height="1.901" transform="translate(18.268)"/><rect class="b" width="2.09" height="1.901" transform="translate(22.835)"/><rect class="b" width="2.09" height="1.901" transform="translate(27.401)"/><rect class="b" width="2.09" height="1.901" transform="translate(31.969)"/><rect class="b" width="2.09" height="1.901" transform="translate(36.536)"/><rect class="b" width="2.09" height="1.901" transform="translate(41.103)"/></g><g transform="translate(0 9.289)"><rect class="b" width="2.09" height="1.901"/><rect class="b" width="2.09" height="1.901" transform="translate(4.567)"/><rect class="b" width="2.09" height="1.901" transform="translate(9.134)"/><rect class="b" width="2.09" height="1.901" transform="translate(13.701)"/><rect class="b" width="2.09" height="1.901" transform="translate(18.268)"/><rect class="b" width="2.09" height="1.901" transform="translate(22.835)"/><rect class="b" width="2.09" height="1.901" transform="translate(27.401)"/><rect class="b" width="2.09" height="1.901" transform="translate(31.969)"/><rect class="b" width="2.09" height="1.901" transform="translate(36.536)"/><rect class="b" width="2.09" height="1.901" transform="translate(41.103)"/></g><g transform="translate(0 13.931)"><rect class="b" width="2.09" height="1.901"/><rect class="b" width="2.09" height="1.901" transform="translate(4.567)"/><rect class="b" width="2.09" height="1.901" transform="translate(9.134)"/><rect class="b" width="2.09" height="1.901" transform="translate(13.701)"/><rect class="b" width="2.09" height="1.901" transform="translate(18.268)"/><rect class="b" width="2.09" height="1.901" transform="translate(22.835)"/><rect class="b" width="2.09" height="1.901" transform="translate(27.401)"/><rect class="b" width="2.09" height="1.901" transform="translate(31.969)"/><rect class="b" width="2.09" height="1.901" transform="translate(36.536)"/><rect class="b" width="2.09" height="1.901" transform="translate(41.103)"/></g><g transform="translate(0 18.577)"><rect class="b" width="2.09" height="1.901"/><rect class="b" width="2.09" height="1.901" transform="translate(4.567)"/><rect class="b" width="2.09" height="1.901" transform="translate(9.134)"/><rect class="b" width="2.09" height="1.901" transform="translate(13.701)"/><rect class="b" width="2.09" height="1.901" transform="translate(18.268)"/><rect class="b" width="2.09" height="1.901" transform="translate(22.835)"/><rect class="b" width="2.09" height="1.901" transform="translate(27.401)"/><rect class="b" width="2.09" height="1.901" transform="translate(31.969)"/><rect class="b" width="2.09" height="1.901" transform="translate(36.536)"/><rect class="b" width="2.09" height="1.901" transform="translate(41.103)"/></g></g><g transform="translate(8.075)"><g transform="translate(0.95 18.251)"><rect class="b" width="2.09" height="1.901"/><rect class="b" width="2.089" height="1.901" transform="translate(4.297)"/><rect class="b" width="2.09" height="1.901" transform="translate(8.592)"/><g transform="translate(24.289 0.326)"><rect class="b" width="2.09" height="1.901"/><rect class="b" width="2.09" height="1.901" transform="translate(4.18)"/></g></g><path class="b" d="M427.9,306.837h-32.46v-6.778H427.9Zm-30.559-1.9H426V301.96H397.345Z" transform="translate(-395.444 -300.059)"/><path class="b" d="M427.9,321.238h-32.46v-6.775H427.9Zm-30.559-1.9H426v-2.973H397.345Z" transform="translate(-395.444 -305.336)"/></g><g transform="translate(0 0.474)"><rect class="b" width="1.901" height="15.119" transform="translate(0.096 4.411)"/><rect class="b" width="2.09" height="1.901"/></g></g></g><g transform="translate(0 94.82)"><g transform="translate(5.108 28.352)"><rect class="b" width="1.901" height="4.179"/><rect class="b" width="1.901" height="4.179" transform="translate(87.544)"/></g><path class="b" d="M474.511,372.241H374.849v-29.3h99.662Zm-97.761-1.9H472.61v-25.5H376.75Z" transform="translate(-374.849 -342.938)"/><g transform="translate(4.974 4.412)"><g transform="translate(46.519)"><rect class="b" width="2.09" height="1.901"/><rect class="b" width="2.09" height="1.901" transform="translate(4.567)"/><rect class="b" width="2.09" height="1.901" transform="translate(9.134)"/><rect class="b" width="2.09" height="1.901" transform="translate(13.701)"/><rect class="b" width="2.09" height="1.901" transform="translate(18.268)"/><rect class="b" width="2.09" height="1.901" transform="translate(22.835)"/><rect class="b" width="2.09" height="1.901" transform="translate(27.401)"/><rect class="b" width="2.09" height="1.901" transform="translate(31.969)"/><rect class="b" width="2.09" height="1.901" transform="translate(36.536)"/><rect class="b" width="2.09" height="1.901" transform="translate(41.103)"/><g transform="translate(0 4.644)"><rect class="b" width="2.09" height="1.901"/><rect class="b" width="2.09" height="1.901" transform="translate(4.567)"/><rect class="b" width="2.09" height="1.901" transform="translate(9.134)"/><rect class="b" width="2.09" height="1.901" transform="translate(13.701)"/><rect class="b" width="2.09" height="1.901" transform="translate(18.268)"/><rect class="b" width="2.09" height="1.901" transform="translate(22.835)"/><rect class="b" width="2.09" height="1.901" transform="translate(27.401)"/><rect class="b" width="2.09" height="1.901" transform="translate(31.969)"/><rect class="b" width="2.09" height="1.901" transform="translate(36.536)"/><rect class="b" width="2.09" height="1.901" transform="translate(41.103)"/></g><g transform="translate(0 9.289)"><rect class="b" width="2.09" height="1.901"/><rect class="b" width="2.09" height="1.901" transform="translate(4.567)"/><rect class="b" width="2.09" height="1.901" transform="translate(9.134)"/><rect class="b" width="2.09" height="1.901" transform="translate(13.701)"/><rect class="b" width="2.09" height="1.901" transform="translate(18.268)"/><rect class="b" width="2.09" height="1.901" transform="translate(22.835)"/><rect class="b" width="2.09" height="1.901" transform="translate(27.401)"/><rect class="b" width="2.09" height="1.901" transform="translate(31.969)"/><rect class="b" width="2.09" height="1.901" transform="translate(36.536)"/><rect class="b" width="2.09" height="1.901" transform="translate(41.103)"/></g><g transform="translate(0 13.931)"><rect class="b" width="2.09" height="1.901"/><rect class="b" width="2.09" height="1.901" transform="translate(4.567)"/><rect class="b" width="2.09" height="1.901" transform="translate(9.134)"/><rect class="b" width="2.09" height="1.901" transform="translate(13.701)"/><rect class="b" width="2.09" height="1.901" transform="translate(18.268)"/><rect class="b" width="2.09" height="1.901" transform="translate(22.835)"/><rect class="b" width="2.09" height="1.901" transform="translate(27.401)"/><rect class="b" width="2.09" height="1.901" transform="translate(31.969)"/><rect class="b" width="2.09" height="1.901" transform="translate(36.536)"/><rect class="b" width="2.09" height="1.901" transform="translate(41.103)"/></g><g transform="translate(0 18.577)"><rect class="b" width="2.09" height="1.901"/><rect class="b" width="2.09" height="1.901" transform="translate(4.567)"/><rect class="b" width="2.09" height="1.901" transform="translate(9.134)"/><rect class="b" width="2.09" height="1.901" transform="translate(13.701)"/><rect class="b" width="2.09" height="1.901" transform="translate(18.268)"/><rect class="b" width="2.09" height="1.901" transform="translate(22.835)"/><rect class="b" width="2.09" height="1.901" transform="translate(27.401)"/><rect class="b" width="2.09" height="1.901" transform="translate(31.969)"/><rect class="b" width="2.09" height="1.901" transform="translate(36.536)"/><rect class="b" width="2.09" height="1.901" transform="translate(41.103)"/></g></g><g transform="translate(8.075 0)"><g transform="translate(0.95 18.251)"><rect class="b" width="2.09" height="1.901"/><rect class="b" width="2.089" height="1.901" transform="translate(4.297)"/><rect class="b" width="2.09" height="1.901" transform="translate(8.592)"/><g transform="translate(24.289 0.326)"><rect class="b" width="2.09" height="1.901"/><rect class="b" width="2.09" height="1.901" transform="translate(4.18)"/></g></g><path class="b" d="M427.9,356.68h-32.46V349.9H427.9Zm-30.559-1.9H426V351.8H397.345Z" transform="translate(-395.444 -349.902)"/><path class="b" d="M427.9,371.08h-32.46V364.3H427.9Zm-30.559-1.9H426v-2.974H397.345Z" transform="translate(-395.444 -355.179)"/></g><g transform="translate(0 0.474)"><rect class="b" width="1.901" height="15.119" transform="translate(0.096 4.411)"/><rect class="b" width="2.09" height="1.901"/></g></g></g><g transform="translate(0 126.428)"><g transform="translate(5.108 28.352)"><rect class="b" width="1.901" height="4.18"/><rect class="b" width="1.901" height="4.18" transform="translate(87.544)"/></g><path class="b" d="M474.511,422.084H374.849v-29.3h99.662Zm-97.761-1.9H472.61v-25.5H376.75Z" transform="translate(-374.849 -392.781)"/><g transform="translate(4.974 4.412)"><g transform="translate(46.519)"><rect class="b" width="2.09" height="1.901"/><rect class="b" width="2.09" height="1.901" transform="translate(4.567)"/><rect class="b" width="2.09" height="1.901" transform="translate(9.134)"/><rect class="b" width="2.09" height="1.901" transform="translate(13.701)"/><rect class="b" width="2.09" height="1.901" transform="translate(18.268)"/><rect class="b" width="2.09" height="1.901" transform="translate(22.835)"/><rect class="b" width="2.09" height="1.901" transform="translate(27.401)"/><rect class="b" width="2.09" height="1.901" transform="translate(31.969)"/><rect class="b" width="2.09" height="1.901" transform="translate(36.536)"/><rect class="b" width="2.09" height="1.901" transform="translate(41.103)"/><g transform="translate(0 4.644)"><rect class="b" width="2.09" height="1.901"/><rect class="b" width="2.09" height="1.901" transform="translate(4.567)"/><rect class="b" width="2.09" height="1.901" transform="translate(9.134)"/><rect class="b" width="2.09" height="1.901" transform="translate(13.701)"/><rect class="b" width="2.09" height="1.901" transform="translate(18.268)"/><rect class="b" width="2.09" height="1.901" transform="translate(22.835)"/><rect class="b" width="2.09" height="1.901" transform="translate(27.401)"/><rect class="b" width="2.09" height="1.901" transform="translate(31.969)"/><rect class="b" width="2.09" height="1.901" transform="translate(36.536)"/><rect class="b" width="2.09" height="1.901" transform="translate(41.103)"/></g><g transform="translate(0 9.289)"><rect class="b" width="2.09" height="1.901"/><rect class="b" width="2.09" height="1.901" transform="translate(4.567)"/><rect class="b" width="2.09" height="1.901" transform="translate(9.134)"/><rect class="b" width="2.09" height="1.901" transform="translate(13.701)"/><rect class="b" width="2.09" height="1.901" transform="translate(18.268)"/><rect class="b" width="2.09" height="1.901" transform="translate(22.835)"/><rect class="b" width="2.09" height="1.901" transform="translate(27.401)"/><rect class="b" width="2.09" height="1.901" transform="translate(31.969)"/><rect class="b" width="2.09" height="1.901" transform="translate(36.536)"/><rect class="b" width="2.09" height="1.901" transform="translate(41.103)"/></g><g transform="translate(0 13.932)"><rect class="b" width="2.09" height="1.901"/><rect class="b" width="2.09" height="1.901" transform="translate(4.567)"/><rect class="b" width="2.09" height="1.901" transform="translate(9.134)"/><rect class="b" width="2.09" height="1.901" transform="translate(13.701)"/><rect class="b" width="2.09" height="1.901" transform="translate(18.268)"/><rect class="b" width="2.09" height="1.901" transform="translate(22.835)"/><rect class="b" width="2.09" height="1.901" transform="translate(27.401)"/><rect class="b" width="2.09" height="1.901" transform="translate(31.969)"/><rect class="b" width="2.09" height="1.901" transform="translate(36.536)"/><rect class="b" width="2.09" height="1.901" transform="translate(41.103)"/></g><g transform="translate(0 18.577)"><rect class="b" width="2.09" height="1.901"/><rect class="b" width="2.09" height="1.901" transform="translate(4.567)"/><rect class="b" width="2.09" height="1.901" transform="translate(9.134)"/><rect class="b" width="2.09" height="1.901" transform="translate(13.701)"/><rect class="b" width="2.09" height="1.901" transform="translate(18.268)"/><rect class="b" width="2.09" height="1.901" transform="translate(22.835)"/><rect class="b" width="2.09" height="1.901" transform="translate(27.401)"/><rect class="b" width="2.09" height="1.901" transform="translate(31.969)"/><rect class="b" width="2.09" height="1.901" transform="translate(36.536)"/><rect class="b" width="2.09" height="1.901" transform="translate(41.103)"/></g></g><g transform="translate(8.075 0)"><g transform="translate(0.95 18.252)"><rect class="b" width="2.09" height="1.901"/><rect class="b" width="2.089" height="1.901" transform="translate(4.297)"/><rect class="b" width="2.09" height="1.901" transform="translate(8.592)"/><g transform="translate(24.289 0.325)"><rect class="b" width="2.09" height="1.901"/><rect class="b" width="2.09" height="1.901" transform="translate(4.18)"/></g></g><path class="b" d="M427.9,406.522h-32.46v-6.777H427.9Zm-30.559-1.9H426v-2.975H397.345Z" transform="translate(-395.444 -399.745)"/><path class="b" d="M427.9,420.924h-32.46v-6.776H427.9Zm-30.559-1.9H426v-2.975H397.345Z" transform="translate(-395.444 -405.022)"/></g><g transform="translate(0 0.474)"><rect class="b" width="1.901" height="15.119" transform="translate(0.096 4.411)"/><rect class="b" width="2.09" height="1.901"/></g></g></g><rect class="b" width="89.445" height="1.901" transform="translate(5.108 158.01)"/></g></g><g transform="translate(440.147 0.951)"><path class="a" d="M1069.36,193.262v29.511h5.108v2.091h-5.108v29.51h5.108v2.092h-5.108v29.509h5.108v2.091h-5.108v29.509h5.108v2.091h-5.109v29.512h5.109v4.183H1164.1v-4.183h5.11V319.666h-5.11v-2.091h5.11V288.066h-5.11v-2.091h5.11V256.465h-5.11v-2.092h5.11v-29.51h-5.11v-2.091h5.11V193.262Z" transform="translate(-1069.359 -193.262)"/><g transform="translate(0.096 0.095)"><g transform="translate(0 31.606)"><g transform="translate(5.108 28.351)"><rect class="c" width="1.901" height="4.18"/><rect class="c" width="1.901" height="4.18" transform="translate(87.544)"/></g><path class="c" d="M1169.174,272.554h-99.663v-29.3h99.663Zm-97.762-1.9h95.861v-25.5h-95.861Z" transform="translate(-1069.511 -243.253)"/><g transform="translate(4.975 4.412)"><g transform="translate(46.519 0)"><rect class="c" width="2.09" height="1.901"/><rect class="c" width="2.09" height="1.901" transform="translate(4.568)"/><rect class="c" width="2.09" height="1.901" transform="translate(9.134)"/><rect class="c" width="2.09" height="1.901" transform="translate(13.701)"/><rect class="c" width="2.09" height="1.901" transform="translate(18.268)"/><rect class="c" width="2.09" height="1.901" transform="translate(22.836)"/><rect class="c" width="2.09" height="1.901" transform="translate(27.402)"/><rect class="c" width="2.09" height="1.901" transform="translate(31.97)"/><rect class="c" width="2.09" height="1.901" transform="translate(36.536)"/><rect class="c" width="2.09" height="1.901" transform="translate(41.103)"/><g transform="translate(0 4.645)"><rect class="c" width="2.09" height="1.901"/><rect class="c" width="2.09" height="1.901" transform="translate(4.568)"/><rect class="c" width="2.09" height="1.901" transform="translate(9.134)"/><rect class="c" width="2.09" height="1.901" transform="translate(13.701)"/><rect class="c" width="2.09" height="1.901" transform="translate(18.268)"/><rect class="c" width="2.09" height="1.901" transform="translate(22.836)"/><rect class="c" width="2.09" height="1.901" transform="translate(27.402)"/><rect class="c" width="2.09" height="1.901" transform="translate(31.97)"/><rect class="c" width="2.09" height="1.901" transform="translate(36.536)"/><rect class="c" width="2.09" height="1.901" transform="translate(41.103)"/></g><g transform="translate(0 9.289)"><rect class="c" width="2.09" height="1.901"/><rect class="c" width="2.09" height="1.901" transform="translate(4.568)"/><rect class="c" width="2.09" height="1.901" transform="translate(9.134)"/><rect class="c" width="2.09" height="1.901" transform="translate(13.701)"/><rect class="c" width="2.09" height="1.901" transform="translate(18.268)"/><rect class="c" width="2.09" height="1.901" transform="translate(22.836)"/><rect class="c" width="2.09" height="1.901" transform="translate(27.402)"/><rect class="c" width="2.09" height="1.901" transform="translate(31.97)"/><rect class="c" width="2.09" height="1.901" transform="translate(36.536)"/><rect class="c" width="2.09" height="1.901" transform="translate(41.103)"/></g><g transform="translate(0 13.932)"><rect class="c" width="2.09" height="1.901"/><rect class="c" width="2.09" height="1.901" transform="translate(4.568)"/><rect class="c" width="2.09" height="1.901" transform="translate(9.134)"/><rect class="c" width="2.09" height="1.901" transform="translate(13.701)"/><rect class="c" width="2.09" height="1.901" transform="translate(18.268)"/><rect class="c" width="2.09" height="1.901" transform="translate(22.836)"/><rect class="c" width="2.09" height="1.901" transform="translate(27.402)"/><rect class="c" width="2.09" height="1.901" transform="translate(31.97)"/><rect class="c" width="2.09" height="1.901" transform="translate(36.536)"/><rect class="c" width="2.09" height="1.901" transform="translate(41.103)"/></g><g transform="translate(0 18.576)"><rect class="c" width="2.09" height="1.901"/><rect class="c" width="2.09" height="1.901" transform="translate(4.568)"/><rect class="c" width="2.09" height="1.901" transform="translate(9.134)"/><rect class="c" width="2.09" height="1.901" transform="translate(13.701)"/><rect class="c" width="2.09" height="1.901" transform="translate(18.268)"/><rect class="c" width="2.09" height="1.901" transform="translate(22.836)"/><rect class="c" width="2.09" height="1.901" transform="translate(27.402)"/><rect class="c" width="2.09" height="1.901" transform="translate(31.97)"/><rect class="c" width="2.09" height="1.901" transform="translate(36.536)"/><rect class="c" width="2.09" height="1.901" transform="translate(41.103)"/></g></g><g transform="translate(8.075)"><g transform="translate(0.951 18.251)"><rect class="c" width="2.09" height="1.901"/><rect class="c" width="2.09" height="1.901" transform="translate(4.297)"/><rect class="c" width="2.09" height="1.901" transform="translate(8.593)"/><g transform="translate(24.29 0.325)"><rect class="c" width="2.09" height="1.901"/><rect class="c" width="2.09" height="1.901" transform="translate(4.18)"/></g></g><path class="c" d="M1122.567,256.994h-32.461v-6.777h32.461Zm-30.56-1.9h28.659v-2.975h-28.659Z" transform="translate(-1090.106 -250.217)"/><path class="c" d="M1122.567,271.4h-32.461v-6.776h32.461Zm-30.56-1.9h28.659v-2.974h-28.659Z" transform="translate(-1090.106 -255.495)"/></g><g transform="translate(0 0.474)"><rect class="c" width="1.901" height="15.119" transform="translate(0.096 4.412)"/><rect class="c" width="2.09" height="1.901"/></g></g></g><g transform="translate(5.108 28.351)"><rect class="c" width="1.901" height="4.179"/><rect class="c" width="1.901" height="4.179" transform="translate(87.544)"/></g><path class="c" d="M1169.173,222.713h-99.662v-29.3h99.662Zm-97.761-1.9h95.861v-25.5h-95.861Z" transform="translate(-1069.511 -193.412)"/><g transform="translate(4.975 4.412)"><g transform="translate(46.519)"><rect class="c" width="2.09" height="1.901"/><rect class="c" width="2.09" height="1.901" transform="translate(4.568)"/><rect class="c" width="2.09" height="1.901" transform="translate(9.134)"/><rect class="c" width="2.09" height="1.901" transform="translate(13.701)"/><rect class="c" width="2.09" height="1.901" transform="translate(18.269)"/><rect class="c" width="2.09" height="1.901" transform="translate(22.835)"/><rect class="c" width="2.09" height="1.901" transform="translate(27.403)"/><rect class="c" width="2.09" height="1.901" transform="translate(31.969)"/><rect class="c" width="2.09" height="1.901" transform="translate(36.537)"/><rect class="c" width="2.09" height="1.901" transform="translate(41.103)"/><g transform="translate(0 4.644)"><rect class="c" width="2.09" height="1.901"/><rect class="c" width="2.09" height="1.901" transform="translate(4.568)"/><rect class="c" width="2.09" height="1.901" transform="translate(9.134)"/><rect class="c" width="2.09" height="1.901" transform="translate(13.701)"/><rect class="c" width="2.09" height="1.901" transform="translate(18.269)"/><rect class="c" width="2.09" height="1.901" transform="translate(22.835)"/><rect class="c" width="2.09" height="1.901" transform="translate(27.403)"/><rect class="c" width="2.09" height="1.901" transform="translate(31.969)"/><rect class="c" width="2.09" height="1.901" transform="translate(36.537)"/><rect class="c" width="2.09" height="1.901" transform="translate(41.103)"/></g><g transform="translate(0 9.288)"><rect class="c" width="2.09" height="1.901"/><rect class="c" width="2.09" height="1.901" transform="translate(4.568)"/><rect class="c" width="2.09" height="1.901" transform="translate(9.134)"/><rect class="c" width="2.09" height="1.901" transform="translate(13.701)"/><rect class="c" width="2.09" height="1.901" transform="translate(18.269)"/><rect class="c" width="2.09" height="1.901" transform="translate(22.835)"/><rect class="c" width="2.09" height="1.901" transform="translate(27.403)"/><rect class="c" width="2.09" height="1.901" transform="translate(31.969)"/><rect class="c" width="2.09" height="1.901" transform="translate(36.537)"/><rect class="c" width="2.09" height="1.901" transform="translate(41.103)"/></g><g transform="translate(0 13.932)"><rect class="c" width="2.09" height="1.901"/><rect class="c" width="2.09" height="1.901" transform="translate(4.568)"/><rect class="c" width="2.09" height="1.901" transform="translate(9.134)"/><rect class="c" width="2.09" height="1.901" transform="translate(13.701)"/><rect class="c" width="2.09" height="1.901" transform="translate(18.269)"/><rect class="c" width="2.09" height="1.901" transform="translate(22.835)"/><rect class="c" width="2.09" height="1.901" transform="translate(27.403)"/><rect class="c" width="2.09" height="1.901" transform="translate(31.969)"/><rect class="c" width="2.09" height="1.901" transform="translate(36.537)"/><rect class="c" width="2.09" height="1.901" transform="translate(41.103)"/></g><g transform="translate(0 18.576)"><rect class="c" width="2.09" height="1.901"/><rect class="c" width="2.09" height="1.901" transform="translate(4.568)"/><rect class="c" width="2.09" height="1.901" transform="translate(9.134)"/><rect class="c" width="2.09" height="1.901" transform="translate(13.701)"/><rect class="c" width="2.09" height="1.901" transform="translate(18.269)"/><rect class="c" width="2.09" height="1.901" transform="translate(22.835)"/><rect class="c" width="2.09" height="1.901" transform="translate(27.403)"/><rect class="c" width="2.09" height="1.901" transform="translate(31.969)"/><rect class="c" width="2.09" height="1.901" transform="translate(36.537)"/><rect class="c" width="2.09" height="1.901" transform="translate(41.103)"/></g></g><g transform="translate(8.075)"><g transform="translate(0.951 18.25)"><rect class="c" width="2.09" height="1.901"/><rect class="c" width="2.09" height="1.901" transform="translate(4.297)"/><rect class="c" width="2.09" height="1.901" transform="translate(8.593)"/><g transform="translate(24.29 0.325)"><rect class="c" width="2.09" height="1.901"/><rect class="c" width="2.09" height="1.901" transform="translate(4.18)"/></g></g><path class="c" d="M1122.567,207.154h-32.461v-6.778h32.461Zm-30.56-1.9h28.659v-2.976h-28.659Z" transform="translate(-1090.106 -200.376)"/><path class="c" d="M1122.567,221.555h-32.461v-6.777h32.461Zm-30.56-1.9h28.659V216.68h-28.659Z" transform="translate(-1090.106 -205.653)"/></g><g transform="translate(0 0.472)"><rect class="c" width="1.901" height="15.119" transform="translate(0.096 4.412)"/><rect class="c" width="2.09" height="1.901"/></g></g><g transform="translate(0 63.212)"><g transform="translate(5.108 28.352)"><rect class="c" width="1.901" height="4.179"/><rect class="c" width="1.901" height="4.179" transform="translate(87.544)"/></g><path class="c" d="M1169.174,322.4h-99.663V293.1h99.663Zm-97.762-1.9h95.861V295h-95.861Z" transform="translate(-1069.511 -293.095)"/><g transform="translate(4.975 4.412)"><g transform="translate(46.519 0)"><rect class="c" width="2.09" height="1.901"/><rect class="c" width="2.09" height="1.901" transform="translate(4.568)"/><rect class="c" width="2.09" height="1.901" transform="translate(9.134)"/><rect class="c" width="2.09" height="1.901" transform="translate(13.701)"/><rect class="c" width="2.09" height="1.901" transform="translate(18.268)"/><rect class="c" width="2.09" height="1.901" transform="translate(22.836)"/><rect class="c" width="2.09" height="1.901" transform="translate(27.402)"/><rect class="c" width="2.09" height="1.901" transform="translate(31.97)"/><rect class="c" width="2.09" height="1.901" transform="translate(36.536)"/><rect class="c" width="2.09" height="1.901" transform="translate(41.103)"/><g transform="translate(0 4.645)"><rect class="c" width="2.09" height="1.901"/><rect class="c" width="2.09" height="1.901" transform="translate(4.568)"/><rect class="c" width="2.09" height="1.901" transform="translate(9.134)"/><rect class="c" width="2.09" height="1.901" transform="translate(13.701)"/><rect class="c" width="2.09" height="1.901" transform="translate(18.268)"/><rect class="c" width="2.09" height="1.901" transform="translate(22.836)"/><rect class="c" width="2.09" height="1.901" transform="translate(27.402)"/><rect class="c" width="2.09" height="1.901" transform="translate(31.97)"/><rect class="c" width="2.09" height="1.901" transform="translate(36.536)"/><rect class="c" width="2.09" height="1.901" transform="translate(41.103)"/></g><g transform="translate(0 9.289)"><rect class="c" width="2.09" height="1.901"/><rect class="c" width="2.09" height="1.901" transform="translate(4.568)"/><rect class="c" width="2.09" height="1.901" transform="translate(9.134)"/><rect class="c" width="2.09" height="1.901" transform="translate(13.701)"/><rect class="c" width="2.09" height="1.901" transform="translate(18.268)"/><rect class="c" width="2.09" height="1.901" transform="translate(22.836)"/><rect class="c" width="2.09" height="1.901" transform="translate(27.402)"/><rect class="c" width="2.09" height="1.901" transform="translate(31.97)"/><rect class="c" width="2.09" height="1.901" transform="translate(36.536)"/><rect class="c" width="2.09" height="1.901" transform="translate(41.103)"/></g><g transform="translate(0 13.931)"><rect class="c" width="2.09" height="1.901"/><rect class="c" width="2.09" height="1.901" transform="translate(4.568)"/><rect class="c" width="2.09" height="1.901" transform="translate(9.134)"/><rect class="c" width="2.09" height="1.901" transform="translate(13.701)"/><rect class="c" width="2.09" height="1.901" transform="translate(18.268)"/><rect class="c" width="2.09" height="1.901" transform="translate(22.836)"/><rect class="c" width="2.09" height="1.901" transform="translate(27.402)"/><rect class="c" width="2.09" height="1.901" transform="translate(31.97)"/><rect class="c" width="2.09" height="1.901" transform="translate(36.536)"/><rect class="c" width="2.09" height="1.901" transform="translate(41.103)"/></g><g transform="translate(0 18.577)"><rect class="c" width="2.09" height="1.901"/><rect class="c" width="2.09" height="1.901" transform="translate(4.568)"/><rect class="c" width="2.09" height="1.901" transform="translate(9.134)"/><rect class="c" width="2.09" height="1.901" transform="translate(13.701)"/><rect class="c" width="2.09" height="1.901" transform="translate(18.268)"/><rect class="c" width="2.09" height="1.901" transform="translate(22.836)"/><rect class="c" width="2.09" height="1.901" transform="translate(27.402)"/><rect class="c" width="2.09" height="1.901" transform="translate(31.97)"/><rect class="c" width="2.09" height="1.901" transform="translate(36.536)"/><rect class="c" width="2.09" height="1.901" transform="translate(41.103)"/></g></g><g transform="translate(8.075)"><g transform="translate(0.951 18.251)"><rect class="c" width="2.09" height="1.901"/><rect class="c" width="2.09" height="1.901" transform="translate(4.297)"/><rect class="c" width="2.09" height="1.901" transform="translate(8.593)"/><g transform="translate(24.29 0.326)"><rect class="c" width="2.09" height="1.901"/><rect class="c" width="2.09" height="1.901" transform="translate(4.18)"/></g></g><path class="c" d="M1122.567,306.837h-32.461v-6.778h32.461Zm-30.56-1.9h28.659V301.96h-28.659Z" transform="translate(-1090.106 -300.059)"/><path class="c" d="M1122.567,321.238h-32.461v-6.775h32.461Zm-30.56-1.9h28.659v-2.973h-28.659Z" transform="translate(-1090.106 -305.336)"/></g><g transform="translate(0 0.474)"><rect class="c" width="1.901" height="15.119" transform="translate(0.096 4.411)"/><rect class="c" width="2.09" height="1.901"/></g></g></g><g transform="translate(0 94.82)"><g transform="translate(5.108 28.352)"><rect class="c" width="1.901" height="4.179"/><rect class="c" width="1.901" height="4.179" transform="translate(87.544)"/></g><path class="c" d="M1169.174,372.241h-99.663v-29.3h99.663Zm-97.762-1.9h95.861v-25.5h-95.861Z" transform="translate(-1069.511 -342.938)"/><g transform="translate(4.975 4.412)"><g transform="translate(46.519)"><rect class="c" width="2.09" height="1.901"/><rect class="c" width="2.09" height="1.901" transform="translate(4.568)"/><rect class="c" width="2.09" height="1.901" transform="translate(9.134)"/><rect class="c" width="2.09" height="1.901" transform="translate(13.701)"/><rect class="c" width="2.09" height="1.901" transform="translate(18.268)"/><rect class="c" width="2.09" height="1.901" transform="translate(22.836)"/><rect class="c" width="2.09" height="1.901" transform="translate(27.402)"/><rect class="c" width="2.09" height="1.901" transform="translate(31.97)"/><rect class="c" width="2.09" height="1.901" transform="translate(36.536)"/><rect class="c" width="2.09" height="1.901" transform="translate(41.103)"/><g transform="translate(0 4.644)"><rect class="c" width="2.09" height="1.901"/><rect class="c" width="2.09" height="1.901" transform="translate(4.568)"/><rect class="c" width="2.09" height="1.901" transform="translate(9.134)"/><rect class="c" width="2.09" height="1.901" transform="translate(13.701)"/><rect class="c" width="2.09" height="1.901" transform="translate(18.268)"/><rect class="c" width="2.09" height="1.901" transform="translate(22.836)"/><rect class="c" width="2.09" height="1.901" transform="translate(27.402)"/><rect class="c" width="2.09" height="1.901" transform="translate(31.97)"/><rect class="c" width="2.09" height="1.901" transform="translate(36.536)"/><rect class="c" width="2.09" height="1.901" transform="translate(41.103)"/></g><g transform="translate(0 9.289)"><rect class="c" width="2.09" height="1.901"/><rect class="c" width="2.09" height="1.901" transform="translate(4.568)"/><rect class="c" width="2.09" height="1.901" transform="translate(9.134)"/><rect class="c" width="2.09" height="1.901" transform="translate(13.701)"/><rect class="c" width="2.09" height="1.901" transform="translate(18.268)"/><rect class="c" width="2.09" height="1.901" transform="translate(22.836)"/><rect class="c" width="2.09" height="1.901" transform="translate(27.402)"/><rect class="c" width="2.09" height="1.901" transform="translate(31.97)"/><rect class="c" width="2.09" height="1.901" transform="translate(36.536)"/><rect class="c" width="2.09" height="1.901" transform="translate(41.103)"/></g><g transform="translate(0 13.931)"><rect class="c" width="2.09" height="1.901"/><rect class="c" width="2.09" height="1.901" transform="translate(4.568)"/><rect class="c" width="2.09" height="1.901" transform="translate(9.134)"/><rect class="c" width="2.09" height="1.901" transform="translate(13.701)"/><rect class="c" width="2.09" height="1.901" transform="translate(18.268)"/><rect class="c" width="2.09" height="1.901" transform="translate(22.836)"/><rect class="c" width="2.09" height="1.901" transform="translate(27.402)"/><rect class="c" width="2.09" height="1.901" transform="translate(31.97)"/><rect class="c" width="2.09" height="1.901" transform="translate(36.536)"/><rect class="c" width="2.09" height="1.901" transform="translate(41.103)"/></g><g transform="translate(0 18.577)"><rect class="c" width="2.09" height="1.901"/><rect class="c" width="2.09" height="1.901" transform="translate(4.568)"/><rect class="c" width="2.09" height="1.901" transform="translate(9.134)"/><rect class="c" width="2.09" height="1.901" transform="translate(13.701)"/><rect class="c" width="2.09" height="1.901" transform="translate(18.268)"/><rect class="c" width="2.09" height="1.901" transform="translate(22.836)"/><rect class="c" width="2.09" height="1.901" transform="translate(27.402)"/><rect class="c" width="2.09" height="1.901" transform="translate(31.97)"/><rect class="c" width="2.09" height="1.901" transform="translate(36.536)"/><rect class="c" width="2.09" height="1.901" transform="translate(41.103)"/></g></g><g transform="translate(8.075 0)"><g transform="translate(0.951 18.251)"><rect class="c" width="2.09" height="1.901"/><rect class="c" width="2.09" height="1.901" transform="translate(4.297)"/><rect class="c" width="2.09" height="1.901" transform="translate(8.593)"/><g transform="translate(24.29 0.326)"><rect class="c" width="2.09" height="1.901"/><rect class="c" width="2.09" height="1.901" transform="translate(4.18)"/></g></g><path class="c" d="M1122.567,356.68h-32.461V349.9h32.461Zm-30.56-1.9h28.659V351.8h-28.659Z" transform="translate(-1090.106 -349.902)"/><path class="c" d="M1122.567,371.08h-32.461V364.3h32.461Zm-30.56-1.9h28.659v-2.974h-28.659Z" transform="translate(-1090.106 -355.179)"/></g><g transform="translate(0 0.474)"><rect class="c" width="1.901" height="15.119" transform="translate(0.096 4.411)"/><rect class="c" width="2.09" height="1.901"/></g></g></g><g transform="translate(0 126.428)"><g transform="translate(5.108 28.352)"><rect class="c" width="1.901" height="4.18"/><rect class="c" width="1.901" height="4.18" transform="translate(87.544)"/></g><path class="c" d="M1169.174,422.084h-99.663v-29.3h99.663Zm-97.762-1.9h95.861v-25.5h-95.861Z" transform="translate(-1069.511 -392.781)"/><g transform="translate(4.975 4.412)"><g transform="translate(46.519)"><rect class="c" width="2.09" height="1.901"/><rect class="c" width="2.09" height="1.901" transform="translate(4.568)"/><rect class="c" width="2.09" height="1.901" transform="translate(9.134)"/><rect class="c" width="2.09" height="1.901" transform="translate(13.701)"/><rect class="c" width="2.09" height="1.901" transform="translate(18.268)"/><rect class="c" width="2.09" height="1.901" transform="translate(22.836)"/><rect class="c" width="2.09" height="1.901" transform="translate(27.402)"/><rect class="c" width="2.09" height="1.901" transform="translate(31.97)"/><rect class="c" width="2.09" height="1.901" transform="translate(36.536)"/><rect class="c" width="2.09" height="1.901" transform="translate(41.103)"/><g transform="translate(0 4.644)"><rect class="c" width="2.09" height="1.901"/><rect class="c" width="2.09" height="1.901" transform="translate(4.568)"/><rect class="c" width="2.09" height="1.901" transform="translate(9.134)"/><rect class="c" width="2.09" height="1.901" transform="translate(13.701)"/><rect class="c" width="2.09" height="1.901" transform="translate(18.268)"/><rect class="c" width="2.09" height="1.901" transform="translate(22.836)"/><rect class="c" width="2.09" height="1.901" transform="translate(27.402)"/><rect class="c" width="2.09" height="1.901" transform="translate(31.97)"/><rect class="c" width="2.09" height="1.901" transform="translate(36.536)"/><rect class="c" width="2.09" height="1.901" transform="translate(41.103)"/></g><g transform="translate(0 9.289)"><rect class="c" width="2.09" height="1.901"/><rect class="c" width="2.09" height="1.901" transform="translate(4.568)"/><rect class="c" width="2.09" height="1.901" transform="translate(9.134)"/><rect class="c" width="2.09" height="1.901" transform="translate(13.701)"/><rect class="c" width="2.09" height="1.901" transform="translate(18.268)"/><rect class="c" width="2.09" height="1.901" transform="translate(22.836)"/><rect class="c" width="2.09" height="1.901" transform="translate(27.402)"/><rect class="c" width="2.09" height="1.901" transform="translate(31.97)"/><rect class="c" width="2.09" height="1.901" transform="translate(36.536)"/><rect class="c" width="2.09" height="1.901" transform="translate(41.103)"/></g><g transform="translate(0 13.932)"><rect class="c" width="2.09" height="1.901"/><rect class="c" width="2.09" height="1.901" transform="translate(4.568)"/><rect class="c" width="2.09" height="1.901" transform="translate(9.134)"/><rect class="c" width="2.09" height="1.901" transform="translate(13.701)"/><rect class="c" width="2.09" height="1.901" transform="translate(18.268)"/><rect class="c" width="2.09" height="1.901" transform="translate(22.836)"/><rect class="c" width="2.09" height="1.901" transform="translate(27.402)"/><rect class="c" width="2.09" height="1.901" transform="translate(31.97)"/><rect class="c" width="2.09" height="1.901" transform="translate(36.536)"/><rect class="c" width="2.09" height="1.901" transform="translate(41.103)"/></g><g transform="translate(0 18.577)"><rect class="c" width="2.09" height="1.901"/><rect class="c" width="2.09" height="1.901" transform="translate(4.568)"/><rect class="c" width="2.09" height="1.901" transform="translate(9.134)"/><rect class="c" width="2.09" height="1.901" transform="translate(13.701)"/><rect class="c" width="2.09" height="1.901" transform="translate(18.268)"/><rect class="c" width="2.09" height="1.901" transform="translate(22.836)"/><rect class="c" width="2.09" height="1.901" transform="translate(27.402)"/><rect class="c" width="2.09" height="1.901" transform="translate(31.97)"/><rect class="c" width="2.09" height="1.901" transform="translate(36.536)"/><rect class="c" width="2.09" height="1.901" transform="translate(41.103)"/></g></g><g transform="translate(8.075 0)"><g transform="translate(0.951 18.252)"><rect class="c" width="2.09" height="1.901"/><rect class="c" width="2.09" height="1.901" transform="translate(4.297)"/><rect class="c" width="2.09" height="1.901" transform="translate(8.593)"/><g transform="translate(24.29 0.325)"><rect class="c" width="2.09" height="1.901"/><rect class="c" width="2.09" height="1.901" transform="translate(4.18)"/></g></g><path class="c" d="M1122.567,406.522h-32.461v-6.777h32.461Zm-30.56-1.9h28.659v-2.975h-28.659Z" transform="translate(-1090.106 -399.745)"/><path class="c" d="M1122.567,420.924h-32.461v-6.776h32.461Zm-30.56-1.9h28.659v-2.975h-28.659Z" transform="translate(-1090.106 -405.022)"/></g><g transform="translate(0 0.474)"><rect class="c" width="1.901" height="15.119" transform="translate(0.096 4.411)"/><rect class="c" width="2.09" height="1.901"/></g></g></g><rect class="c" width="89.445" height="1.901" transform="translate(5.108 158.01)"/></g></g><g transform="translate(171.8 0)"><path class="d" d="M66.269,153.133q-2.356.566-4.733,1.242s17.137-7.222,17.137-24.639H8a8,8,0,0,1-8-8V8A8,8,0,0,1,8,0H186.5a8,8,0,0,1,8,8V121.736a8,8,0,0,1-8,8H115.831s-2.757,14.6,17.135,24.639c0,0-1.374-.425-3.868-1.02A65.181,65.181,0,0,1,145.95,160.1l-97.4,0A66.334,66.334,0,0,1,66.269,153.133Z" transform="translate(0.952 0.95)"/><g transform="translate(0)"><path class="c" d="M831.8,323.539H656.286a10.463,10.463,0,0,1-10.447-10.455V202.216a10.462,10.462,0,0,1,10.447-10.454H831.8a10.462,10.462,0,0,1,10.447,10.454V313.083A10.463,10.463,0,0,1,831.8,323.539ZM656.286,193.664a8.559,8.559,0,0,0-8.546,8.552V313.083a8.56,8.56,0,0,0,8.546,8.553H831.8a8.559,8.559,0,0,0,8.546-8.553V202.216a8.558,8.558,0,0,0-8.546-8.552Z" transform="translate(-645.839 -191.762)"/><path class="c" d="M841.292,310.674h-194.5a.95.95,0,0,1-.95-.95V213.018a.95.95,0,0,1,.95-.95h194.5a.95.95,0,0,1,.95.95v96.705A.95.95,0,0,1,841.292,310.674Zm-193.552-1.9h192.6v-94.8H647.74Z" transform="translate(-645.839 -199.202)"/><path class="c" d="M723.419,440.089a.951.951,0,0,1-.491-1.765c11.1-6.674,29.487-10.658,49.191-10.658s38.09,3.984,49.186,10.655a.951.951,0,0,1-.98,1.63c-10.812-6.5-28.833-10.384-48.206-10.384s-37.4,3.882-48.212,10.387A.947.947,0,0,1,723.419,440.089Z" transform="translate(-673.914 -278.089)"/><path class="c" d="M820.815,446.174h-97.4a.95.95,0,0,1,0-1.9h97.4a.95.95,0,0,1,0,1.9Z" transform="translate(-673.914 -284.174)"/><path class="c" d="M743.909,423a.95.95,0,0,1-.247-1.868c6.354-1.719,16.435-9.648,16.435-23.608a.95.95,0,1,1,1.9,0c0,15.021-10.942,23.578-17.839,25.443A.938.938,0,0,1,743.909,423Z" transform="translate(-681.422 -266.697)"/><path class="c" d="M846.735,423a.933.933,0,0,1-.248-.034c-6.9-1.865-17.837-10.423-17.837-25.443a.95.95,0,0,1,1.9,0c0,13.96,10.079,21.889,16.433,23.608a.95.95,0,0,1-.248,1.868Z" transform="translate(-712.818 -266.697)"/><rect class="c" width="11.206" height="1.901" transform="translate(92.599 119.194)"/></g></g><g transform="translate(127.354 72.215)"><g transform="translate(0)"><rect class="e" width="4.638" height="20.211" transform="translate(0 3.279) rotate(-45)"/><rect class="e" width="4.638" height="20.211" transform="translate(14.292) rotate(45)"/></g></g><g transform="translate(395.798 72.215)"><g transform="translate(0 0)"><rect class="e" width="4.638" height="20.211" transform="matrix(0.707, -0.707, 0.707, 0.707, 0, 3.279)"/><rect class="e" width="4.638" height="20.211" transform="matrix(0.707, 0.707, -0.707, 0.707, 14.292, 0)"/></g></g></g><g transform="translate(535 203.5)"><path class="e" d="M64.539,48.354a1.083,1.083,0,0,0,1.081,0l7.08-4.046,8.148,4.074a1.083,1.083,0,0,0,.969,0L90,44.294l8.182,4.091a1.083,1.083,0,0,0,.969,0l8.148-4.074,7.08,4.046A1.083,1.083,0,0,0,116,47.417V30.083a1.083,1.083,0,0,0-.317-.766l-13-13a1.083,1.083,0,0,0-.766-.317h-32.5A5.423,5.423,0,0,0,64,21.417v26a1.083,1.083,0,0,0,.54.937ZM103,19.7l9.3,9.3H106.25A3.254,3.254,0,0,1,103,25.75ZM66.167,21.417a3.254,3.254,0,0,1,3.25-3.25h31.417V25.75a5.423,5.423,0,0,0,5.417,5.417h7.583V45.55l-5.963-3.407a1.083,1.083,0,0,0-1.022-.028l-8.182,4.091-8.182-4.091a1.083,1.083,0,0,0-.969,0l-8.182,4.091-8.182-4.091a1.083,1.083,0,0,0-1.022.028L66.167,45.55Z"/><path class="e" d="M69.417,302.333h41.167A5.423,5.423,0,0,0,116,296.917v-19.5a1.083,1.083,0,0,0-.546-.941l-7.583-4.333a1.083,1.083,0,0,0-1.022-.028l-8.182,4.091-8.182-4.091a1.083,1.083,0,0,0-.969,0l-8.182,4.091-8.182-4.091a1.083,1.083,0,0,0-1.022.028l-7.583,4.333a1.083,1.083,0,0,0-.546.941v19.5a5.423,5.423,0,0,0,5.417,5.417Zm-3.25-24.288,6.534-3.734,8.148,4.074a1.083,1.083,0,0,0,.969,0L90,274.295l8.182,4.091a1.083,1.083,0,0,0,.969,0l8.148-4.074,6.534,3.734v18.871a3.254,3.254,0,0,1-3.25,3.25H69.417a3.254,3.254,0,0,1-3.25-3.25Z" transform="translate(0 -221.333)"/><path class="e" d="M192,161.083a1.083,1.083,0,0,0,1.083,1.083h26a1.083,1.083,0,0,0,0-2.167h-26A1.083,1.083,0,0,0,192,161.083Z" transform="translate(-110.667 -124.5)"/><path class="e" d="M120.667,161.083A1.083,1.083,0,0,0,119.583,160h-6.5a1.083,1.083,0,1,0,0,2.167h6.5A1.083,1.083,0,0,0,120.667,161.083Z" transform="translate(-41.5 -124.5)"/><path class="e" d="M240,401.083a1.083,1.083,0,0,0,1.083,1.083h10.833a1.083,1.083,0,0,0,0-2.167H241.083A1.083,1.083,0,0,0,240,401.083Z" transform="translate(-152.167 -332)"/><path class="e" d="M113.083,402.167h13a1.083,1.083,0,0,0,0-2.167h-13a1.083,1.083,0,0,0,0,2.167Z" transform="translate(-41.5 -332)"/><path class="e" d="M113.083,354.167h23.833a1.083,1.083,0,0,0,0-2.167H113.083a1.083,1.083,0,0,0,0,2.167Z" transform="translate(-41.5 -290.5)"/><path class="e" d="M113.083,114.167h13a1.083,1.083,0,1,0,0-2.167h-13a1.083,1.083,0,1,0,0,2.167Z" transform="translate(-41.5 -83)"/><path class="e" d="M321.083,354.167h8.667a1.083,1.083,0,0,0,0-2.167h-8.667a1.083,1.083,0,0,0,0,2.167Z" transform="translate(-221.333 -290.5)"/><path class="e" d="M357.417,400h-4.333a1.083,1.083,0,0,0,0,2.167h4.333a1.083,1.083,0,0,0,0-2.167Z" transform="translate(-249 -332)"/></g></g></svg>