<svg id="ic_nav4" xmlns="http://www.w3.org/2000/svg" width="16" height="16" viewBox="0 0 16 16">
  <path id="Path_81" data-name="Path 81" d="M0,0H16V16H0Z" fill="none"/>
  <path id="Path_82" data-name="Path 82" d="M7.883,3.878a1.149,1.149,0,0,1,2.233,0,1.149,1.149,0,0,0,1.715.711,1.15,1.15,0,0,1,1.58,1.58,1.149,1.149,0,0,0,.71,1.715,1.149,1.149,0,0,1,0,2.233,1.149,1.149,0,0,0-.711,1.715,1.15,1.15,0,0,1-1.58,1.58,1.149,1.149,0,0,0-1.715.71,1.149,1.149,0,0,1-2.233,0,1.149,1.149,0,0,0-1.715-.711,1.15,1.15,0,0,1-1.58-1.58,1.149,1.149,0,0,0-.71-1.715,1.149,1.149,0,0,1,0-2.233,1.149,1.149,0,0,0,.711-1.715,1.15,1.15,0,0,1,1.58-1.58,1.148,1.148,0,0,0,1.715-.71Z" transform="translate(-1 -1)" fill="none" stroke="#495057" stroke-linecap="round" stroke-linejoin="round" stroke-width="1.5"/>
  <circle id="Ellipse_13" data-name="Ellipse 13" cx="2" cy="2" r="2" transform="translate(6 6)" fill="none" stroke="#495057" stroke-linecap="round" stroke-linejoin="round" stroke-width="1.5"/>
</svg>
